<svg width="32" height="32" viewBox="0 0 32 32" fill="none" xmlns="http://www.w3.org/2000/svg">
<path fill-rule="evenodd" clip-rule="evenodd" d="M18.2367 8.77102C17.7729 9.09259 17.2497 9.31856 16.6976 9.43575C16.1456 9.55294 15.5757 9.559 15.0212 9.45358C14.4668 9.34816 13.9389 9.13337 13.4684 8.82174C12.9979 8.51011 12.5941 8.10789 12.2807 7.63855C11.9673 7.16921 11.7505 6.64215 11.643 6.08812C11.5354 5.53409 11.5393 4.96419 11.6544 4.41169C11.7695 3.85918 11.9935 3.33513 12.3133 2.87012C12.6331 2.4051 13.0423 2.00844 13.517 1.70327C14.4544 1.08417 15.5986 0.861325 16.6998 1.08344C17.8009 1.30556 18.7693 1.95458 19.3933 2.88862C20.0173 3.82267 20.2462 4.96576 20.0298 6.06804C19.8135 7.17032 19.1696 8.14213 18.2388 8.77102H18.2367ZM17.0573 3.47127C16.8259 3.30479 16.5633 3.18658 16.2853 3.12367C16.0072 3.06076 15.7193 3.05444 15.4388 3.10509C15.1583 3.15574 14.8908 3.26232 14.6523 3.41849C14.4138 3.57465 14.2091 3.77722 14.0505 4.01411C13.8919 4.251 13.7826 4.51739 13.7291 4.7974C13.6756 5.07742 13.679 5.36534 13.739 5.64402C13.7991 5.9227 13.9146 6.18645 14.0788 6.41956C14.2429 6.65267 14.4522 6.85037 14.6943 7.0009C15.162 7.28504 15.7214 7.37776 16.2558 7.25974C16.7902 7.14173 17.2585 6.82209 17.563 6.3674C17.8676 5.91271 17.985 5.35803 17.8908 4.81892C17.7966 4.27981 17.498 3.79784 17.0573 3.4734V3.47127ZM22.6036 3.53502C23.2164 3.12278 23.9539 2.93713 24.6889 3.01005C25.4239 3.08297 26.1105 3.40989 26.6304 3.93452C27.0009 4.30799 27.2741 4.76666 27.426 5.2703C27.578 5.77394 27.604 6.30717 27.5018 6.82322C27.3997 7.33926 27.1724 7.82236 26.8401 8.23013C26.5077 8.6379 26.0804 8.95788 25.5956 9.16202C25.0133 9.40549 24.3715 9.46962 23.7526 9.3462C23.1336 9.22279 22.5656 8.91745 22.1212 8.46927C21.7872 8.13356 21.5315 7.72817 21.3725 7.2821C21.2135 6.83604 21.155 6.36034 21.2013 5.88905C21.2476 5.41776 21.3975 4.96253 21.6403 4.55594C21.8831 4.14935 22.2127 3.80145 22.6057 3.53715L22.6036 3.53502ZM23.6236 6.95627C23.8231 7.15494 24.0933 7.26621 24.3749 7.26561C24.5143 7.26532 24.6523 7.23756 24.7809 7.18394C24.9096 7.13032 25.0265 7.05187 25.1249 6.95309C25.2232 6.8543 25.3012 6.7371 25.3543 6.60819C25.4073 6.47928 25.4345 6.34118 25.4342 6.20177C25.4339 6.06236 25.4062 5.92437 25.3525 5.79569C25.2989 5.667 25.2205 5.55014 25.1217 5.45177C24.9238 5.25279 24.6564 5.1385 24.3758 5.13302C24.2357 5.13274 24.0968 5.16024 23.9674 5.21393C23.8379 5.26762 23.7204 5.34645 23.6216 5.44584C23.5228 5.54524 23.4447 5.66323 23.3918 5.79301C23.3388 5.92278 23.3122 6.06176 23.3133 6.2019C23.314 6.4849 23.4253 6.75641 23.6236 6.9584V6.95627ZM5.65455 25.397H9.5008V27.5326H5.65455C4.98123 27.5266 4.3378 27.2538 3.8653 26.774C3.39099 26.2925 3.12533 25.6437 3.1258 24.9678V21.1215C2.8397 21.112 2.5585 21.0445 2.29919 20.9233C2.03988 20.802 1.80783 20.6294 1.61705 20.416C1.41433 20.2107 1.25524 19.9665 1.14934 19.6981C1.04343 19.4296 0.992909 19.1426 1.0008 18.8541V14.2174C1.00718 13.2144 1.40455 12.256 2.1058 11.5441C2.80493 10.8408 3.75055 10.4391 4.7408 10.4328H8.6508C8.1234 11.0609 7.72612 11.7875 7.48205 12.5705H4.7408C4.30951 12.5829 3.89915 12.7592 3.5933 13.0635C3.29287 13.3724 3.1251 13.7865 3.1258 14.2174V18.9604H5.2508V24.9657C5.24587 25.0235 5.25275 25.0818 5.27101 25.137C5.28928 25.1921 5.31855 25.243 5.35705 25.2865C5.44247 25.3525 5.54664 25.3897 5.65455 25.3928V25.397ZM21.167 11.5463C20.8193 11.1952 20.4057 10.9163 19.9498 10.7255C19.494 10.5348 19.0049 10.436 18.5108 10.4349H13.2408C12.2502 10.4428 11.3029 10.8424 10.6058 11.5463C9.90455 12.2581 9.50718 13.2165 9.5008 14.2195V20.9728C9.4978 21.5526 9.71853 22.1113 10.1171 22.5325C10.3081 22.7457 10.5402 22.918 10.7994 23.0393C11.0587 23.1605 11.3398 23.2281 11.6258 23.238V28.1744C11.6238 28.5113 11.6885 28.8453 11.8161 29.1571C11.9438 29.469 12.1319 29.7525 12.3696 29.9913C12.7521 30.3483 13.2344 30.5799 13.7508 30.6543H18.0008C18.5985 30.5758 19.1461 30.2792 19.5384 29.8214C19.9306 29.3637 20.1398 28.7771 20.1258 28.1744V23.2359C20.4119 23.2263 20.6931 23.1589 20.9524 23.0376C21.2117 22.9164 21.4438 22.7438 21.6346 22.5304C21.8371 22.3254 21.9961 22.0815 22.102 21.8135C22.2079 21.5454 22.2585 21.2587 22.2508 20.9706V14.2174C22.2523 13.219 21.8633 12.2596 21.167 11.5441V11.5463ZM20.1258 21.0769H18.0008V28.1744C17.9987 28.2864 17.953 28.3932 17.8733 28.4719C17.837 28.5148 17.7913 28.5487 17.7396 28.5708C17.688 28.593 17.6319 28.6027 17.5758 28.5994H14.1546C14.0435 28.5942 13.9384 28.5478 13.8598 28.4692C13.7812 28.3906 13.7347 28.2854 13.7296 28.1744V21.0769H11.6258V14.2174C11.6258 13.786 11.7937 13.3716 12.0933 13.0635C12.3992 12.7592 12.8095 12.5829 13.2408 12.5705H18.5108C18.8327 12.5762 19.146 12.6757 19.4121 12.8569C19.6782 13.0381 19.8857 13.2931 20.0089 13.5905C20.0898 13.7894 20.1296 14.0027 20.1258 14.2174V21.0769ZM26.0971 27.5305H22.2508V25.3949H26.0758C26.1837 25.3919 26.2879 25.3547 26.3733 25.2887C26.4161 25.2468 26.4496 25.1964 26.4715 25.1408C26.4935 25.0851 26.5035 25.0254 26.5008 24.9657V18.9604H28.6258V14.2174C28.6265 13.7865 28.4587 13.3724 28.1583 13.0635C27.8524 12.7592 27.4421 12.5829 27.0108 12.5705H24.2696C24.0256 11.7875 23.6283 11.0608 23.1008 10.4328H27.0108C28.0012 10.4418 28.9481 10.8412 29.6458 11.5441C30.347 12.256 30.7444 13.2144 30.7508 14.2174V18.8541C30.7508 19.4343 30.5319 19.991 30.1367 20.4118C29.7414 20.8346 29.2017 21.0875 28.6258 21.1194V24.9657C28.6258 25.6435 28.3602 26.2917 27.8863 26.7719C27.4138 27.2516 26.7704 27.5244 26.0971 27.5305ZM7.3758 2.99527C6.74346 2.99454 6.12531 3.18265 5.60057 3.53551C5.07583 3.88836 4.66842 4.38988 4.43055 4.97577C4.19049 5.56146 4.12817 6.20487 4.25136 6.82574C4.37456 7.44662 4.67781 8.01748 5.1233 8.46715C5.56863 8.91629 6.13774 9.22249 6.75793 9.34663C7.37812 9.47077 8.02124 9.40721 8.60514 9.16407C9.18903 8.92093 9.68719 8.50926 10.036 7.98163C10.3848 7.454 10.5684 6.83437 10.5633 6.2019C10.5633 5.3519 10.2276 4.5359 9.6283 3.93452C9.33323 3.63731 8.98233 3.40132 8.59577 3.24014C8.20921 3.07895 7.79462 2.99573 7.3758 2.99527ZM7.3758 7.27077C7.23565 7.27106 7.09684 7.24356 6.96739 7.18987C6.83793 7.13617 6.72041 7.05735 6.6216 6.95795C6.5228 6.85856 6.44468 6.74056 6.39176 6.61079C6.33885 6.48102 6.31218 6.34204 6.3133 6.2019C6.31385 5.91969 6.42577 5.6491 6.62473 5.44895C6.82368 5.2488 7.0936 5.13526 7.3758 5.13302C7.65714 5.13798 7.92548 5.25238 8.12386 5.45195C8.32223 5.65151 8.43503 5.92053 8.4383 6.2019C8.43775 6.48411 8.32583 6.7547 8.12688 6.95485C7.92792 7.155 7.658 7.26853 7.3758 7.27077Z" fill="#FF7B47"/>
</svg>
