<svg width="32" height="32" viewBox="0 0 32 32" fill="none" xmlns="http://www.w3.org/2000/svg">
<g clip-path="url(#clip0_964_17543)">
<path d="M29.8154 10.3641L27.8167 13.3703C28.7806 15.2928 29.2525 17.4244 29.1901 19.5741C29.1277 21.7238 28.5329 23.8245 27.4592 25.6878H4.93666C3.54106 23.2667 2.96277 20.4604 3.28751 17.6848C3.61226 14.9092 4.82276 12.3122 6.73956 10.2786C8.65636 8.24512 11.1774 6.88339 13.929 6.39533C16.6806 5.90726 19.5162 6.31885 22.0154 7.56907L25.0217 5.57032C21.9609 3.60767 18.3304 2.7282 14.7109 3.07259C11.0913 3.41698 7.69176 4.96533 5.05609 7.46996C2.42042 9.9746 0.700874 13.2908 0.172515 16.8881C-0.355844 20.4855 0.337506 24.1561 2.14166 27.3128C2.42524 27.804 2.83243 28.2124 3.32276 28.4975C3.81309 28.7826 4.36949 28.9344 4.93666 28.9378H27.4429C28.0156 28.9401 28.5787 28.791 29.0752 28.5056C29.5718 28.2203 29.9841 27.8088 30.2704 27.3128C31.7676 24.7192 32.519 21.7623 32.4416 18.7685C32.3642 15.7747 31.461 12.8606 29.8317 10.3478L29.8154 10.3641ZM13.9067 21.4791C14.2085 21.7812 14.5669 22.021 14.9615 22.1845C15.356 22.3481 15.7789 22.4322 16.206 22.4322C16.6331 22.4322 17.056 22.3481 17.4506 22.1845C17.8451 22.021 18.2036 21.7812 18.5054 21.4791L27.7029 7.68282L13.9067 16.8803C13.6045 17.1822 13.3648 17.5406 13.2012 17.9351C13.0377 18.3297 12.9535 18.7526 12.9535 19.1797C12.9535 19.6068 13.0377 20.0297 13.2012 20.4242C13.3648 20.8188 13.6045 21.1772 13.9067 21.4791V21.4791Z" fill="#FF7B47"/>
</g>
<defs>
<clipPath id="clip0_964_17543">
<rect width="32" height="32" fill="white" transform="translate(0 -0.000488281)"/>
</clipPath>
</defs>
</svg>
