<svg width="48" height="45" viewBox="0 0 48 45" fill="none" xmlns="http://www.w3.org/2000/svg">
<g clip-path="url(#clip0_993_496)">
<path d="M23.8406 20.802C28.1448 20.802 31.4925 17.3066 31.4925 13.0169C31.4925 8.7271 27.9854 5.39062 23.6812 5.39062C19.377 5.39062 16.0293 8.88598 16.0293 13.0169C16.0293 17.3066 19.5364 20.802 23.8406 20.802ZM23.6812 8.56822C23.8406 8.56822 23.8406 8.56822 23.6812 8.56822C26.2318 8.56822 28.3042 10.6337 28.3042 13.1757C28.3042 15.7178 26.2318 17.6244 23.6812 17.6244C21.1306 17.6244 19.2176 15.5589 19.2176 13.1757C19.2176 10.6337 21.29 8.56822 23.6812 8.56822Z" fill="#0D5C63"/>
<path d="M47.4335 19.8482C44.4046 17.1473 40.4193 15.7173 36.2745 15.8762H34.9992C34.6804 17.1473 34.2021 18.2594 33.5645 19.2127C34.5209 19.0538 35.318 19.0538 36.2745 19.0538C39.3034 18.8949 42.3323 19.8482 44.7235 21.5959V33.0352H47.9118V20.3248L47.4335 19.8482Z" fill="#0D5C63"/>
<path d="M32.6088 5.70777C33.4058 3.80121 35.6376 2.84793 37.71 3.64233C39.623 4.43673 40.5795 6.66105 39.7824 8.72649C39.1448 10.1564 37.71 11.1097 36.2753 11.1097C35.9565 11.1097 35.4782 11.1097 35.1594 10.9508C35.3188 11.7452 35.3188 12.5396 35.3188 13.1751V14.1284C35.6376 14.1284 35.9565 14.2873 36.2753 14.2873C40.2607 14.2873 43.449 11.1097 43.449 7.29657C43.449 3.32457 40.2607 0.146973 36.4347 0.146973C33.8841 0.146973 31.6523 1.41801 30.377 3.64233C31.174 4.11897 31.9711 4.75449 32.6088 5.70777Z" fill="#0D5C63"/>
<path d="M14.4352 19.3719C13.7975 18.4186 13.3193 17.3065 13.0005 16.0354H11.7252C7.58037 15.8765 3.59501 17.3065 0.566134 19.8485L0.0878906 20.3252V33.0356H3.27618V21.5962C5.82681 19.8485 8.69628 18.8953 11.7252 19.0541C12.6816 19.0541 13.6381 19.213 14.4352 19.3719Z" fill="#0D5C63"/>
<path d="M11.7246 14.129C12.0435 14.129 12.3623 14.129 12.6811 13.9702V13.0169C12.6811 12.2225 12.6811 11.4281 12.8405 10.7926C12.5217 10.9514 12.0435 10.9514 11.7246 10.9514C9.65225 10.9514 7.89869 9.20375 7.89869 7.13831C7.89869 5.07287 9.65225 3.3252 11.7246 3.3252C13.3188 3.3252 14.7535 4.27848 15.3912 5.70839C16.0288 4.91399 16.9853 4.1196 17.7824 3.48408C15.71 0.147597 11.4058 -0.964563 8.0581 1.10088C4.7104 3.16632 3.59449 7.45607 5.66688 10.7926C6.9422 12.858 9.174 14.129 11.7246 14.129Z" fill="#0D5C63"/>
<path d="M36.9128 29.3812L36.594 28.9046C33.4057 25.4092 28.9421 23.3438 24.1596 23.5027C19.3772 23.3438 14.7542 25.4092 11.5659 28.9046L11.2471 29.3812V41.4561C11.2471 42.886 12.363 44.1571 13.9571 44.1571H34.3622C35.7969 44.1571 37.0722 42.886 37.0722 41.4561V29.3812H36.9128ZM33.7245 40.9795H14.4354V30.4934C16.986 27.9513 20.4931 26.6803 24.1596 26.6803C27.6668 26.5214 31.1739 27.9513 33.7245 30.4934V40.9795Z" fill="#0D5C63"/>
</g>
<defs>
<clipPath id="clip0_993_496">
<rect width="48" height="44.2105" fill="white" transform="translate(0 -0.000488281)"/>
</clipPath>
</defs>
</svg>
