<svg width="48" height="28" viewBox="0 0 48 28" fill="none" xmlns="http://www.w3.org/2000/svg">
<path d="M43.1506 12.2815C42.5751 12.2856 42.005 12.3955 41.4678 12.6056L35.7275 7.82094C35.8687 7.29932 35.9692 6.75821 35.9692 6.18785C35.9692 2.80955 33.3026 0.0942383 29.9848 0.0942383C26.667 0.0942383 24.0003 2.80955 24.0003 6.18785C24.0003 7.15308 24.2397 8.05249 24.6275 8.86172L17.664 17.2417C17.3852 17.1885 17.1025 17.16 16.819 17.1563C16.3905 17.1563 15.9859 17.2295 15.5934 17.3367L9.4581 11.0895C9.56582 10.6922 9.63763 10.2803 9.63763 9.84401C9.63763 7.14333 7.50238 4.96913 4.85006 4.96913C2.19775 4.96913 0.0625 7.14333 0.0625 9.84401C0.0625 12.5447 2.19775 14.7189 4.85006 14.7189C5.27855 14.7189 5.6831 14.6458 6.07568 14.5385L12.2109 20.7857C12.0959 21.1907 12.0355 21.6097 12.0314 22.0312C12.0314 24.7319 14.1667 26.9061 16.819 26.9061C19.4713 26.9061 21.6065 24.7319 21.6065 22.0312C21.6065 21.4536 21.4916 20.91 21.3121 20.3957L28.2852 12.006C28.8286 12.1669 29.3911 12.2815 29.9848 12.2815C30.9295 12.2761 31.8593 12.0413 32.6969 11.5965L38.4396 16.3812C38.3946 16.6372 38.369 16.8964 38.363 17.1563C38.363 19.857 40.4983 22.0312 43.1506 22.0312C45.8029 22.0312 47.9381 19.857 47.9381 17.1563C47.9381 14.4557 45.8029 12.2815 43.1506 12.2815Z" fill="#0D5C63"/>
</svg>
