<svg width="36" height="48" viewBox="0 0 36 48" fill="none" xmlns="http://www.w3.org/2000/svg">
<g clip-path="url(#clip0_993_514)">
<path d="M9.06374 33.9944C8.25268 33.1797 8.67548 33.4094 6.71921 32.8834C5.83161 32.6444 5.05134 32.185 4.34574 31.6347L0.111208 42.0634C-0.298526 43.0731 0.466808 44.17 1.55134 44.1288L6.46908 43.9403L9.85148 47.5291C10.5981 48.3203 11.9085 48.0738 12.3183 47.0641L17.1763 35.0997C16.1645 35.6659 15.0417 35.9978 13.8807 35.9978C12.0607 35.9978 10.3508 35.2863 9.06374 33.9944ZM35.7272 42.0634L31.4927 31.6347C30.7871 32.1859 30.0068 32.6444 29.1192 32.8834C27.1527 33.4122 27.5839 33.1816 26.7747 33.9944C25.4876 35.2863 23.7768 35.9978 21.9568 35.9978C20.7957 35.9978 19.6729 35.665 18.6612 35.0997L23.5192 47.0641C23.9289 48.0738 25.2403 48.3203 25.986 47.5291L29.3693 43.9403L34.2871 44.1288C35.3716 44.17 36.1369 43.0722 35.7272 42.0634ZM24.5459 31.8728C25.972 30.415 26.1353 30.5406 28.1663 29.9847C29.4627 29.6294 30.4763 28.5934 30.8235 27.2678C31.5216 24.6053 31.3405 24.9269 33.2455 22.9788C34.1947 22.0084 34.5652 20.5938 34.218 19.2681C33.5208 16.6075 33.5199 16.9788 34.218 14.3153C34.5652 12.9897 34.1947 11.575 33.2455 10.6047C31.3405 8.65658 31.5216 8.9772 30.8235 6.31564C30.4763 4.99001 29.4627 3.95408 28.1663 3.59876C25.5641 2.88533 25.8777 3.07189 23.9709 1.12283C23.0217 0.152514 21.6376 -0.227174 20.3412 0.128139C17.74 0.840639 18.1031 0.841576 15.4972 0.128139C14.2008 -0.227174 12.8167 0.151576 11.8675 1.12283C9.96254 3.07095 10.2761 2.88533 7.67308 3.59876C6.37668 3.95408 5.36308 4.99001 5.01588 6.31564C4.31868 8.9772 4.49881 8.65658 2.59387 10.6047C1.64467 11.575 1.27321 12.9897 1.62134 14.3153C2.31854 16.9741 2.31947 16.6028 1.62134 19.2672C1.27414 20.5928 1.64467 22.0075 2.59387 22.9788C4.49881 24.9269 4.31774 24.6053 5.01588 27.2678C5.36308 28.5934 6.37668 29.6294 7.67308 29.9847C9.76188 30.5566 9.91774 30.4666 11.2925 31.8728C12.5273 33.1356 14.4509 33.3616 15.9349 32.4184C16.5284 32.04 17.2168 31.8391 17.9197 31.8391C18.6226 31.8391 19.311 32.04 19.9044 32.4184C21.3875 33.3616 23.3111 33.1356 24.5459 31.8728ZM9.11414 16.4941C9.11414 11.5225 13.0565 7.4922 17.9192 7.4922C22.7819 7.4922 26.7243 11.5225 26.7243 16.4941C26.7243 21.4656 22.7819 25.4959 17.9192 25.4959C13.0565 25.4959 9.11414 21.4656 9.11414 16.4941Z" fill="#0D5C63"/>
</g>
<defs>
<clipPath id="clip0_993_514">
<rect width="35.84" height="48" fill="white" transform="translate(0 -0.000488281)"/>
</clipPath>
</defs>
</svg>
