<svg width="48" height="41" viewBox="0 0 48 41" fill="none" xmlns="http://www.w3.org/2000/svg">
<g clip-path="url(#clip0_993_518)">
<path d="M42.5886 8.52505H37.519V3.45543C37.519 2.55907 37.1629 1.69941 36.5291 1.06559C35.8953 0.431763 35.0356 0.0756836 34.1393 0.0756836H13.8608C12.9644 0.0756836 12.1048 0.431763 11.4709 1.06559C10.8371 1.69941 10.481 2.55907 10.481 3.45543V8.52505H5.41142C4.06687 8.52505 2.77739 9.05917 1.82665 10.0099C0.875916 10.9606 0.341797 12.2501 0.341797 13.5947V37.2529C0.341797 38.1493 0.697876 39.0089 1.3317 39.6427C1.96553 40.2766 2.82518 40.6326 3.72154 40.6326H44.2785C45.1749 40.6326 46.0345 40.2766 46.6683 39.6427C47.3022 39.0089 47.6582 38.1493 47.6582 37.2529V13.5947C47.6582 12.2501 47.1241 10.9606 46.1734 10.0099C45.2227 9.05917 43.9332 8.52505 42.5886 8.52505ZM13.8608 3.45543H34.1393V8.52505H13.8608V3.45543ZM44.2785 37.2529H3.72154V22.044H17.2405V30.4934H30.7595V22.044H44.2785V37.2529ZM20.6203 22.044H27.3798V27.1137H20.6203V22.044ZM3.72154 18.6643V13.5947C3.72154 13.1465 3.89958 12.7167 4.2165 12.3997C4.53341 12.0828 4.96323 11.9048 5.41142 11.9048H42.5886C43.0368 11.9048 43.4666 12.0828 43.7836 12.3997C44.1005 12.7167 44.2785 13.1465 44.2785 13.5947V18.6643H3.72154Z" fill="#0D5C63"/>
</g>
<defs>
<clipPath id="clip0_993_518">
<rect width="48" height="40.7089" fill="white" transform="translate(0 -0.000488281)"/>
</clipPath>
</defs>
</svg>
