<svg width="72" height="72" viewBox="0 0 72 72" fill="none" xmlns="http://www.w3.org/2000/svg">
<path d="M55.929 38.9942C55.5775 38.6421 55.16 38.3627 54.7004 38.1721C54.2408 37.9815 53.7482 37.8834 53.2506 37.8834C52.7531 37.8834 52.2604 37.9815 51.8008 38.1721C51.3413 38.3627 50.9238 38.6421 50.5722 38.9942L44.5335 45.0329C41.7339 44.1995 36.5097 42.3053 33.1987 38.9942C29.8876 35.6831 27.9934 30.459 27.16 27.6593L33.1987 21.6206C33.5508 21.2691 33.8301 20.8516 34.0207 20.392C34.2113 19.9324 34.3094 19.4398 34.3094 18.9422C34.3094 18.4447 34.2113 17.952 34.0207 17.4924C33.8301 17.0329 33.5508 16.6154 33.1987 16.2638L18.0451 1.11027C17.6936 0.758158 17.2761 0.47881 16.8165 0.288213C16.3569 0.0976162 15.8642 -0.000488281 15.3667 -0.000488281C14.8692 -0.000488281 14.3765 0.0976162 13.9169 0.288213C13.4573 0.47881 13.0398 0.758158 12.6883 1.11027L2.41418 11.3844C0.97459 12.824 0.163873 14.8015 0.19418 16.8207C0.281313 22.2154 1.70954 40.9528 16.4767 55.72C31.2439 70.4871 49.9813 71.9116 55.3797 72.0025H55.4858C57.4861 72.0025 59.3765 71.2145 60.8085 69.7825L71.0826 59.5084C71.4347 59.1568 71.7141 58.7393 71.9047 58.2798C72.0953 57.8202 72.1934 57.3275 72.1934 56.83C72.1934 56.3324 72.0953 55.8398 71.9047 55.3802C71.7141 54.9206 71.4347 54.5031 71.0826 54.1516L55.929 38.9942ZM55.4479 64.4219C50.72 64.3423 34.5435 63.0732 21.8335 50.3594C9.08175 37.6077 7.84674 21.3744 7.77097 16.7412L15.3667 9.14546L25.1635 18.9422L20.2651 23.8406C19.8198 24.2856 19.4924 24.8345 19.3125 25.4377C19.1326 26.0409 19.1058 26.6795 19.2346 27.2956C19.3256 27.7313 21.5494 38.0623 27.8381 44.351C34.1268 50.6397 44.4578 52.8635 44.8934 52.9544C45.5092 53.0869 46.1484 53.0623 46.7522 52.8828C47.356 52.7034 47.9049 52.375 48.3485 51.9278L53.2506 47.0294L63.0474 56.8262L55.4479 64.4219Z" fill="#0D5C63"/>
</svg>
