<svg width="73" height="72" viewBox="0 0 73 72" fill="none" xmlns="http://www.w3.org/2000/svg">
<path d="M29.5 41.9995C37.4967 41.9995 44 35.7205 44 27.9995C44 20.2785 37.4967 13.9995 29.5 13.9995C21.5032 13.9995 15 20.2785 15 27.9995C15 35.7205 21.5032 41.9995 29.5 41.9995ZM29.5 20.9995C33.4984 20.9995 36.75 24.139 36.75 27.9995C36.75 31.86 33.4984 34.9995 29.5 34.9995C25.5016 34.9995 22.25 31.86 22.25 27.9995C22.25 24.139 25.5016 20.9995 29.5 20.9995Z" fill="white"/>
<path d="M27.4338 70.3398C28.0367 70.7689 28.7591 70.9995 29.5 70.9995C30.2409 70.9995 30.9633 70.7689 31.5662 70.3398C32.6492 69.5765 58.103 51.2619 57.9997 28.3997C57.9997 12.7406 45.214 -0.000488281 29.5 -0.000488281C13.786 -0.000488281 1.00031 12.7406 1.00031 28.382C0.897002 51.2619 26.3508 69.5765 27.4338 70.3398ZM29.5 7.09957C41.2882 7.09957 50.8748 16.6527 50.8748 28.4175C50.9496 44.1725 35.2427 58.3194 29.5 62.9593C23.7609 58.3158 8.05042 44.1654 8.12524 28.3997C8.12524 16.6527 17.7118 7.09957 29.5 7.09957Z" fill="white"/>
</svg>
