<svg width="73" height="72" viewBox="0 0 73 72" fill="none" xmlns="http://www.w3.org/2000/svg">
<g clip-path="url(#clip0_964_17616)">
<path d="M70.3484 2.1615C69.9592 1.75854 69.4674 1.47955 68.9308 1.35732C68.3943 1.2351 67.8354 1.27472 67.3198 1.47154L3.8615 25.4703C3.31422 25.6862 2.84305 26.0701 2.51056 26.5711C2.17807 27.0721 2 27.6664 2 28.2752C2 28.8839 2.17807 29.4782 2.51056 29.9792C2.84305 30.4802 3.31422 30.8641 3.8615 31.08L31.5524 42.5994L42.6287 71.3979C42.8368 71.9421 43.1935 72.411 43.6549 72.7468C44.1162 73.0827 44.6619 73.2707 45.2248 73.2878C45.8077 73.2754 46.3733 73.0796 46.847 72.7261C47.3207 72.3727 47.6804 71.8782 47.8785 71.3079L70.9542 5.31134C71.1507 4.7806 71.1981 4.20269 71.0909 3.64499C70.9836 3.0873 70.7261 2.57281 70.3484 2.1615ZM45.2248 61.8884L37.1771 40.8895L50.9937 26.5202L46.9266 22.2905L32.9946 36.7797L12.9187 28.2902L63.4834 9.30113L45.2248 61.8884Z" fill="#0D5C63"/>
</g>
<defs>
<clipPath id="clip0_964_17616">
<rect width="72" height="72" fill="white" transform="translate(0.5 -0.000488281)"/>
</clipPath>
</defs>
</svg>
