<svg width="48" height="48" viewBox="0 0 48 48" fill="none" xmlns="http://www.w3.org/2000/svg">
<g clip-path="url(#clip0_964_18504)">
<path d="M42.5886 12.5251H37.519V7.45543C37.519 6.55907 37.1629 5.69941 36.5291 5.06559C35.8953 4.43176 35.0356 4.07568 34.1393 4.07568H13.8608C12.9644 4.07568 12.1048 4.43176 11.4709 5.06559C10.8371 5.69941 10.481 6.55907 10.481 7.45543V12.5251H5.41142C4.06687 12.5251 2.77739 13.0592 1.82665 14.0099C0.875916 14.9606 0.341797 16.2501 0.341797 17.5947V41.2529C0.341797 42.1493 0.697876 43.0089 1.3317 43.6427C1.96553 44.2766 2.82518 44.6326 3.72154 44.6326H44.2785C45.1749 44.6326 46.0345 44.2766 46.6683 43.6427C47.3022 43.0089 47.6582 42.1493 47.6582 41.2529V17.5947C47.6582 16.2501 47.1241 14.9606 46.1734 14.0099C45.2227 13.0592 43.9332 12.5251 42.5886 12.5251ZM13.8608 7.45543H34.1393V12.5251H13.8608V7.45543ZM44.2785 41.2529H3.72154V26.044H17.2405V34.4934H30.7595V26.044H44.2785V41.2529ZM20.6203 26.044H27.3798V31.1137H20.6203V26.044ZM3.72154 22.6643V17.5947C3.72154 17.1465 3.89958 16.7167 4.2165 16.3997C4.53341 16.0828 4.96323 15.9048 5.41142 15.9048H42.5886C43.0368 15.9048 43.4666 16.0828 43.7836 16.3997C44.1005 16.7167 44.2785 17.1465 44.2785 17.5947V22.6643H3.72154Z" fill="#ffffff"/>
</g>
<defs>
<clipPath id="clip0_964_18504">
<rect width="48" height="40.7089" fill="white" transform="translate(0 3.99951)"/>
</clipPath>
</defs>
</svg>
