<svg width="48" height="48" viewBox="0 0 48 48" fill="none" xmlns="http://www.w3.org/2000/svg">
<g clip-path="url(#clip0_964_18518)">
<path d="M29.1416 13.6235H41.1395V17.0688H29.1416V13.6235Z" fill="#0D5C63"/>
<path d="M29.1416 22.2368H41.1395V25.6821H29.1416V22.2368Z" fill="#0D5C63"/>
<path d="M29.1416 30.8501H41.1395V34.2954H29.1416V30.8501Z" fill="#0D5C63"/>
<path d="M44.5674 5.01074H3.43187C2.52299 5.01165 1.65161 5.37494 1.00893 6.02086C0.366264 6.66679 0.00481376 7.54258 0.00390625 8.45606V39.4639C0.00481376 40.3774 0.366264 41.2532 1.00893 41.8991C1.65161 42.545 2.52299 42.9083 3.43187 42.9092H44.5674C45.4761 42.9079 46.3472 42.5444 46.9898 41.8986C47.6324 41.2528 47.994 40.3773 47.9953 39.4639V8.45606C47.9944 7.54258 47.633 6.66679 46.9903 6.02086C46.3477 5.37494 45.4763 5.01165 44.5674 5.01074ZM3.43187 8.45606H22.2856V39.4639H3.43187V8.45606ZM25.7136 39.4639V8.45606H44.5674L44.5708 39.4639H25.7136Z" fill="#0D5C63"/>
</g>
<defs>
<clipPath id="clip0_964_18518">
<rect width="48" height="37.92" fill="white" transform="translate(0 4.99951)"/>
</clipPath>
</defs>
</svg>
